<?xml version="1.0" standalone="no"?>
<!DOCTYPE svg PUBLIC "-//W3C//DTD SVG 20010904//EN"
 "http://www.w3.org/TR/2001/REC-SVG-20010904/DTD/svg10.dtd">
<svg version="1.0" xmlns="http://www.w3.org/2000/svg"
 width="24" height="24" viewBox="0 0 512.000000 512.000000"
 preserveAspectRatio="xMidYMid meet">

<g transform="translate(0.000000,512.000000) scale(0.100000,-0.100000)"
fill="#000000" stroke="none">
<path d="M95 5106 c-41 -18 -83 -69 -91 -111 -17 -90 -40 -62 593 -696 l585
-586 -103 -71 c-303 -206 -656 -530 -951 -870 -136 -158 -151 -197 -105 -280
55 -102 463 -534 687 -728 139 -120 382 -303 511 -384 137 -85 417 -225 549
-274 130 -47 330 -99 475 -123 154 -24 469 -25 620 0 242 40 457 108 698 220
l88 40 617 -616 c545 -544 621 -616 655 -622 60 -11 107 3 148 44 41 41 55 88
44 149 -6 33 -259 290 -2433 2465 -1440 1441 -2440 2435 -2459 2443 -40 17
-89 17 -128 0z m1803 -2109 l113 -113 -30 -64 c-89 -187 -77 -405 31 -588 42
-72 148 -178 220 -220 183 -108 401 -120 588 -31 l64 30 115 -115 c134 -134
137 -116 -24 -196 -292 -144 -637 -129 -916 42 -111 68 -249 206 -317 317
-187 307 -187 688 1 999 17 28 34 52 37 52 3 0 56 -51 118 -113z"/>
<path d="M2331 4149 c-124 -13 -310 -53 -440 -95 l-114 -36 266 -266 266 -266
58 12 c101 23 248 26 349 8 206 -36 371 -122 520 -270 226 -227 322 -523 268
-836 l-16 -93 353 -353 c195 -195 358 -354 364 -354 36 1 428 361 618 567 296
322 322 364 283 456 -29 69 -403 472 -624 673 -702 637 -1435 927 -2151 853z"/>
</g>
</svg>
