<svg width="42" height="42" viewBox="0 0 42 42" fill="none" xmlns="http://www.w3.org/2000/svg">
<path d="M39.4108 21.1319C39.4108 19.6406 39.2873 18.5524 39.02 17.4238H21.6434V24.1548H31.8431C31.6375 25.8275 30.5271 28.3467 28.0593 30.0394L28.0247 30.2647L33.5189 34.4359L33.8996 34.4731C37.3954 31.3091 39.4108 26.6538 39.4108 21.1319Z" fill="#4285F4"/>
<path d="M21.6422 38.8659C26.6392 38.8659 30.8342 37.2536 33.8984 34.4726L28.0581 30.0388C26.4953 31.1069 24.3977 31.8526 21.6422 31.8526C16.748 31.8526 12.5941 28.6886 11.1133 24.3154L10.8963 24.3335L5.18338 28.6664L5.10867 28.8699C8.15212 34.7949 14.4036 38.8659 21.6422 38.8659Z" fill="#34A853"/>
<path d="M11.1144 24.3163C10.7237 23.1878 10.4976 21.9785 10.4976 20.7291C10.4976 19.4795 10.7237 18.2704 11.0939 17.1419L11.0835 16.9015L5.29899 12.499L5.10973 12.5872C3.85537 15.0459 3.13562 17.8069 3.13562 20.7291C3.13562 23.6512 3.85537 26.4121 5.10973 28.8708L11.1144 24.3163Z" fill="#FBBC05"/>
<path d="M21.6423 9.60396C25.1176 9.60396 27.4619 11.0751 28.7986 12.3045L34.0219 7.30659C30.814 4.38443 26.6393 2.59082 21.6423 2.59082C14.4037 2.59082 8.15214 6.66166 5.10867 12.5866L11.0928 17.1412C12.5941 12.768 16.7481 9.60396 21.6423 9.60396Z" fill="#EB4335"/>
</svg>
